<svg width="70" height="37" viewBox="0 0 70 37" fill="none" xmlns="http://www.w3.org/2000/svg">
<path d="M60.4142 24.966L58.9063 29.5767C58.8866 29.6514 58.8416 29.7171 58.7786 29.7627C58.7159 29.8084 58.639 29.8312 58.5611 29.8274H54.901C54.682 29.8274 54.6173 29.7021 54.6512 29.5215L60.9385 11.5287C61.1479 10.9164 61.2521 10.2735 61.2468 9.62698C61.2442 9.57379 61.2622 9.52163 61.2971 9.48126C61.3322 9.44086 61.3816 9.41533 61.4349 9.40991H66.464C66.6213 9.40991 66.683 9.44048 66.7169 9.59641L73.852 29.5461C73.9137 29.702 73.8828 29.8274 73.6947 29.8274H69.6152C69.5404 29.84 69.4635 29.8249 69.3993 29.7848C69.335 29.7447 69.2877 29.6825 69.267 29.6103L67.6635 24.966H60.4142ZM66.5133 21.0678C65.8967 19.0102 64.6264 15.2404 64.0313 13.0268H64.0004C63.4946 15.115 62.3631 18.5302 61.5336 21.0678H66.5133Z" fill="#A0A0A0"/>
<path d="M25.9413 0.888916H41.1519V37L25.9413 0.888916Z" fill="#A0A0A0"/>
<path d="M15.223 0.888916H0V37L15.223 0.888916Z" fill="#A0A0A0"/>
<path d="M20.5821 14.1978L30.2734 36.9999H23.9215L21.023 29.7386H13.9311L20.5821 14.1978Z" fill="#A0A0A0"/>
</svg>
