<svg width="71" height="37" viewBox="0 0 71 37" fill="none" xmlns="http://www.w3.org/2000/svg">
<path d="M-9.58581 24.966L-11.0937 29.5767C-11.1134 29.6514 -11.1584 29.7171 -11.2214 29.7627C-11.2841 29.8084 -11.361 29.8312 -11.4389 29.8274H-15.099C-15.318 29.8274 -15.3827 29.7021 -15.3488 29.5215L-9.06153 11.5287C-8.85212 10.9164 -8.74793 10.2735 -8.75324 9.62698C-8.75577 9.57379 -8.73781 9.52163 -8.70291 9.48126C-8.66776 9.44086 -8.61844 9.41533 -8.56507 9.40991H-3.53599C-3.37868 9.40991 -3.31697 9.44048 -3.28308 9.59641L3.85196 29.5461C3.91366 29.702 3.88281 29.8274 3.69465 29.8274H-0.38476C-0.45962 29.84 -0.536506 29.8249 -0.600744 29.7848C-0.664983 29.7447 -0.712279 29.6825 -0.733018 29.6103L-2.33645 24.966H-9.58581ZM-3.48668 21.0678C-4.10327 19.0102 -5.37363 15.2404 -5.96872 13.0268H-5.99957C-6.50539 15.115 -7.6369 18.5302 -8.46644 21.0678H-3.48668Z" fill="#A0A0A0"/>
<path d="M4.35449 22.2205C4.35449 17.7628 7.71868 14.0236 13.4723 14.0236C13.7222 14.0236 14.0366 14.0542 14.5085 14.0847V7.94545C14.505 7.91611 14.5083 7.88639 14.5181 7.85848C14.5277 7.83059 14.5439 7.80524 14.5649 7.78435C14.5859 7.76346 14.6114 7.74759 14.6395 7.73788C14.6678 7.7282 14.6977 7.72494 14.7273 7.72838H18.6896C18.8469 7.72838 18.8777 7.78952 18.8777 7.91488V26.3357C18.8694 27.0961 18.9116 27.8559 19.0042 28.6105C19.0042 28.7665 18.9733 28.8307 18.7852 28.8918C16.8262 29.7174 14.7192 30.1417 12.5904 30.1392C7.93744 30.1392 4.35449 27.5221 4.35449 22.2205ZM14.5085 17.7964C14.1337 17.6749 13.7397 17.6221 13.3459 17.6405C10.9253 17.6405 8.85019 19.105 8.85019 22.0034C8.85019 25.0884 10.6418 26.4305 13.0315 26.4305C13.5308 26.4513 14.0303 26.3884 14.5085 26.2439V17.7964Z" fill="#A0A0A0"/>
<path d="M36.882 22.0033C36.882 26.8951 33.6752 30.139 29.1486 30.139C23.7713 30.139 21.3846 26.1187 21.3846 22.0981C21.3846 17.6709 24.3694 14.0234 29.2103 14.0234C34.2735 14.0234 36.882 17.7963 36.882 22.0033ZM25.8155 22.0339C25.8155 24.7856 27.1044 26.5222 29.2073 26.5222C31.0328 26.5222 32.4142 24.9659 32.4142 22.0981C32.4142 19.6522 31.4089 17.6404 29.0224 17.6404C27.2 17.6404 25.8155 19.2608 25.8155 22.0339Z" fill="#A0A0A0"/>
<path d="M43.49 7.72827C43.7397 7.72827 43.7983 7.75884 43.7983 7.97591V14.3659C44.6592 14.1374 45.5467 14.0223 46.4377 14.0235C51.0629 14.0235 53.9829 17.2643 53.9829 21.4408C53.9829 27.2713 49.3299 30.1391 44.5538 30.1391C42.8818 30.1506 41.2182 29.9084 39.6203 29.4206C39.5646 29.3903 39.5181 29.3461 39.4852 29.2925C39.4524 29.2388 39.4339 29.1776 39.4321 29.1149V7.94534C39.4321 7.78941 39.4938 7.72827 39.6511 7.72827H43.49ZM45.6484 17.7015C45.0227 17.6938 44.399 17.7783 43.7983 17.9523V26.4151C44.1797 26.5011 44.5697 26.5423 44.9607 26.5375C47.3504 26.5375 49.5181 25.1035 49.5181 21.8627C49.5244 19.0101 47.8593 17.7015 45.6577 17.7015H45.6484Z" fill="#A0A0A0"/>
<path d="M60.1344 23.2204C60.2917 24.9967 61.5497 26.4612 64.6301 26.4612C65.9551 26.4865 67.271 26.242 68.4968 25.7427C68.5924 25.6816 68.685 25.7121 68.685 25.8987V28.8613C68.685 29.0782 68.6233 29.167 68.466 29.2342C67.208 29.8276 65.8266 30.1515 63.6559 30.1515C57.7447 30.1515 55.6726 26.1309 55.6726 22.2664C55.6726 17.9647 58.3431 14.0359 63.2796 14.0359C68.0251 14.0359 69.9121 17.6834 69.9121 20.7622C69.9344 21.4618 69.8817 22.1618 69.7548 22.8504C69.7505 22.9155 69.7224 22.9768 69.6759 23.0229C69.6296 23.069 69.5676 23.0968 69.5021 23.1011C68.426 23.2019 67.3451 23.2438 66.2644 23.2265L60.1344 23.2204ZM64.2232 20.1966C64.7472 20.2156 65.272 20.1941 65.7927 20.1324V19.9153C65.7836 19.5787 65.707 19.2472 65.5671 18.9403C65.4275 18.6334 65.2275 18.3571 64.9789 18.1277C64.7303 17.8983 64.4381 17.7203 64.1192 17.6041C63.8006 17.4879 63.4617 17.4359 63.1223 17.451C61.1428 17.451 60.2917 18.9186 60.1036 20.2027L64.2232 20.1966Z" fill="#A0A0A0"/>
</svg>
