<svg width="141" height="37" viewBox="0 0 141 37" fill="none" xmlns="http://www.w3.org/2000/svg">
<path d="M60.4142 24.966L58.9063 29.5767C58.8866 29.6514 58.8416 29.7171 58.7786 29.7627C58.7159 29.8084 58.639 29.8312 58.5611 29.8274H54.901C54.682 29.8274 54.6173 29.7021 54.6512 29.5215L60.9385 11.5287C61.1479 10.9164 61.2521 10.2735 61.2468 9.62698C61.2442 9.57379 61.2622 9.52163 61.2971 9.48126C61.3322 9.44086 61.3816 9.41533 61.4349 9.40991H66.464C66.6213 9.40991 66.683 9.44048 66.7169 9.59641L73.852 29.5461C73.9137 29.702 73.8828 29.8274 73.6947 29.8274H69.6152C69.5404 29.84 69.4635 29.8249 69.3993 29.7848C69.335 29.7447 69.2877 29.6825 69.267 29.6103L67.6635 24.966H60.4142ZM66.5133 21.0678C65.8967 19.0102 64.6264 15.2404 64.0313 13.0268H64.0004C63.4946 15.115 62.3631 18.5302 61.5336 21.0678H66.5133Z" fill="#A0A0A0"/>
<path d="M74.3545 22.2205C74.3545 17.7628 77.7187 14.0236 83.4723 14.0236C83.7222 14.0236 84.0366 14.0542 84.5085 14.0847V7.94545C84.505 7.91611 84.5083 7.88639 84.5181 7.85848C84.5277 7.83059 84.5439 7.80524 84.5649 7.78435C84.5859 7.76346 84.6114 7.74759 84.6395 7.73788C84.6678 7.7282 84.6977 7.72494 84.7273 7.72838H88.6896C88.8469 7.72838 88.8777 7.78952 88.8777 7.91488V26.3357C88.8694 27.0961 88.9116 27.8559 89.0042 28.6105C89.0042 28.7665 88.9733 28.8307 88.7852 28.8918C86.8262 29.7174 84.7192 30.1417 82.5904 30.1392C77.9374 30.1392 74.3545 27.5221 74.3545 22.2205ZM84.5085 17.7964C84.1337 17.6749 83.7397 17.6221 83.3459 17.6405C80.9253 17.6405 78.8502 19.105 78.8502 22.0034C78.8502 25.0884 80.6418 26.4305 83.0315 26.4305C83.5308 26.4513 84.0303 26.3884 84.5085 26.2439V17.7964Z" fill="#A0A0A0"/>
<path d="M106.882 22.0033C106.882 26.8951 103.675 30.139 99.1486 30.139C93.7712 30.139 91.3846 26.1187 91.3846 22.0981C91.3846 17.6709 94.3694 14.0234 99.2103 14.0234C104.274 14.0234 106.882 17.7963 106.882 22.0033ZM95.8155 22.0339C95.8155 24.7856 97.1043 26.5222 99.2073 26.5222C101.033 26.5222 102.414 24.9659 102.414 22.0981C102.414 19.6522 101.409 17.6404 99.0224 17.6404C97.1999 17.6404 95.8155 19.2608 95.8155 22.0339Z" fill="#A0A0A0"/>
<path d="M113.49 7.72827C113.74 7.72827 113.798 7.75884 113.798 7.97591V14.3659C114.659 14.1374 115.547 14.0223 116.438 14.0235C121.063 14.0235 123.983 17.2643 123.983 21.4408C123.983 27.2713 119.33 30.1391 114.554 30.1391C112.882 30.1506 111.218 29.9084 109.62 29.4206C109.565 29.3903 109.518 29.3461 109.485 29.2925C109.452 29.2388 109.434 29.1776 109.432 29.1149V7.94534C109.432 7.78941 109.494 7.72827 109.651 7.72827H113.49ZM115.648 17.7015C115.023 17.6938 114.399 17.7783 113.798 17.9523V26.4151C114.18 26.5011 114.57 26.5423 114.961 26.5375C117.35 26.5375 119.518 25.1035 119.518 21.8627C119.524 19.0101 117.859 17.7015 115.658 17.7015H115.648Z" fill="#A0A0A0"/>
<path d="M130.134 23.2204C130.292 24.9967 131.55 26.4612 134.63 26.4612C135.955 26.4865 137.271 26.242 138.497 25.7427C138.592 25.6816 138.685 25.7121 138.685 25.8987V28.8613C138.685 29.0782 138.623 29.167 138.466 29.2342C137.208 29.8276 135.827 30.1515 133.656 30.1515C127.745 30.1515 125.673 26.1309 125.673 22.2664C125.673 17.9647 128.343 14.0359 133.28 14.0359C138.025 14.0359 139.912 17.6834 139.912 20.7622C139.934 21.4618 139.882 22.1618 139.755 22.8504C139.75 22.9155 139.722 22.9768 139.676 23.0229C139.63 23.069 139.568 23.0968 139.502 23.1011C138.426 23.2019 137.345 23.2438 136.264 23.2265L130.134 23.2204ZM134.223 20.1966C134.747 20.2156 135.272 20.1941 135.793 20.1324V19.9153C135.784 19.5787 135.707 19.2472 135.567 18.9403C135.428 18.6334 135.227 18.3571 134.979 18.1277C134.73 17.8983 134.438 17.7203 134.119 17.6041C133.801 17.4879 133.462 17.4359 133.122 17.451C131.143 17.451 130.292 18.9186 130.104 20.2027L134.223 20.1966Z" fill="#A0A0A0"/>
<path d="M25.9413 0.888916H41.1519V37L25.9413 0.888916Z" fill="#A0A0A0"/>
<path d="M15.223 0.888916H0V37L15.223 0.888916Z" fill="#A0A0A0"/>
<path d="M20.5821 14.1978L30.2734 36.9999H23.9215L21.023 29.7386H13.9311L20.5821 14.1978Z" fill="#A0A0A0"/>
</svg>
