<svg width="104" height="35" viewBox="0 0 104 35" fill="none" xmlns="http://www.w3.org/2000/svg">
<path d="M9.84 34.68C8.10667 34.68 6.56 34.5333 5.2 34.24C3.84 33.9467 2.42667 33.4533 0.96 32.76V27.84C2.37333 28.64 3.8 29.2267 5.24 29.6C6.70667 29.9467 8.24 30.12 9.84 30.12C12.1067 30.12 13.24 29.3067 13.24 27.68C13.24 26.9867 13.04 26.48 12.64 26.16C12.2667 25.8133 11.6667 25.5333 10.84 25.32L7.56 24.6C5.50667 24.1467 3.94667 23.4133 2.88 22.4C1.84 21.36 1.32 19.88 1.32 17.96C1.32 13.32 4.21333 11 10 11C12.5333 11 15.08 11.48 17.64 12.44V17.16C16.6533 16.68 15.52 16.2933 14.24 16C12.96 15.7067 11.6267 15.56 10.24 15.56C7.92 15.56 6.76 16.2533 6.76 17.64C6.76 18.28 6.94667 18.7467 7.32 19.04C7.72 19.3333 8.30667 19.5733 9.08 19.76L12.32 20.48C14.48 20.9867 16.08 21.7467 17.12 22.76C18.16 23.7733 18.68 25.3333 18.68 27.44C18.68 29.8133 17.88 31.6133 16.28 32.84C14.68 34.0667 12.5333 34.68 9.84 34.68ZM23.7625 1.72H29.1225V7.76H23.7625V1.72ZM23.7625 11.64H29.1225V34H23.7625V11.64ZM41.8403 34.52C39.6536 34.52 38.0536 34.0667 37.0403 33.16C36.027 32.2267 35.5203 30.8 35.5203 28.88V0.159999H40.8803V27.12C40.8803 28.08 41.0403 28.7467 41.3603 29.12C41.6803 29.4933 42.2536 29.68 43.0803 29.68C43.907 29.68 44.6403 29.6 45.2803 29.44V34.08C44.027 34.3733 42.8803 34.52 41.8403 34.52ZM49.4656 1.72H54.8256V7.76H49.4656V1.72ZM49.4656 11.64H54.8256V34H49.4656V11.64ZM68.7034 25.12L66.5834 27.32V34H61.2234V0.159999H66.5834V20.64L74.6634 12.16H81.1434L72.2634 21.44L82.1834 34H75.7034L68.7034 25.12ZM93.8281 11.64C96.4681 11.64 98.4681 12.04 99.8281 12.84C101.215 13.6133 102.135 14.6667 102.588 16C103.041 17.3067 103.268 18.96 103.268 20.96V34H97.9081V31.96C96.9215 32.8667 95.9481 33.52 94.9881 33.92C94.0548 34.32 93.0281 34.52 91.9081 34.52C89.5615 34.52 87.6681 33.8533 86.2281 32.52C84.8148 31.16 84.1081 29.3067 84.1081 26.96C84.1081 24.56 84.8415 22.7067 86.3081 21.4C87.8015 20.0667 89.8415 19.4 92.4281 19.4C94.5348 19.4 96.3615 19.8133 97.9081 20.64C97.8815 19.6267 97.7481 18.8133 97.5081 18.2C97.2948 17.5867 96.8548 17.12 96.1881 16.8C95.5215 16.4533 94.5348 16.28 93.2281 16.28H89.4681V11.64H93.8281ZM92.8681 30.24C94.4948 30.24 96.1748 29.4933 97.9081 28V24.48C96.4948 23.76 95.0415 23.4 93.5481 23.4C92.3748 23.4 91.4148 23.68 90.6681 24.24C89.9215 24.7733 89.5481 25.6533 89.5481 26.88C89.5481 28.08 89.8548 28.9467 90.4681 29.48C91.1081 29.9867 91.9081 30.24 92.8681 30.24Z" fill="#160647"/>
</svg>
